<?xml version="1.0" encoding="UTF-8"?>
<svg width="150px" height="94px" viewBox="0 0 150 94" version="1.1" xmlns="http://www.w3.org/2000/svg" xmlns:xlink="http://www.w3.org/1999/xlink">
    <!-- Generator: Sketch 45.1 (43504) - http://www.bohemiancoding.com/sketch -->
    <title>LOGO</title>
    <desc>Created with Sketch.</desc>
    <defs></defs>
    <g id="Page-1" stroke="none" stroke-width="1" fill="none" fill-rule="evenodd">
        <g id="LOGO">
            <path d="M1.82399399,21.7240726 C1.82399399,22.4587031 2.40904867,23.053404 3.13176327,23.053404 L14.9016868,23.053404 C15.5899864,23.053404 15.9685512,22.6685975 15.9685512,22.0389143 L15.9685512,21.8640022 C15.9685512,21.1993366 15.5899864,20.8495125 14.9016868,20.8495125 L4.1642127,20.8495125 L4.1642127,1.36431374 C4.1642127,0.629683265 3.82006289,0.279859229 3.13176327,0.279859229 L2.82202844,0.279859229 C2.1681438,0.279859229 1.82399399,0.629683265 1.82399399,1.36431374 L1.82399399,21.7240726 Z M19.5378763,22.4936855 L27.6942268,1.08445451 C27.9351317,0.48975365 28.3481115,0.209894422 29.4493908,0.209894422 C30.5506702,0.209894422 30.96365,0.48975365 31.2045549,1.08445451 L39.3609054,22.4936855 C39.4297353,22.6685975 38.7414357,23.1933336 38.0187211,23.1933336 C37.4680814,23.1933336 36.9174417,22.9484568 36.6077069,22.1088791 L34.1642432,15.6721168 L24.5968785,15.6721168 L22.1878299,22.1088791 C21.878095,22.9484568 21.3618703,23.1933336 20.8456456,23.1933336 C20.157346,23.1933336 19.4690464,22.6685975 19.5378763,22.4936855 Z M25.3540081,13.5731726 L33.4071137,13.5731726 L29.3805609,2.9385219 L25.3540081,13.5731726 Z M42.6204957,19.0304276 C42.6204957,20.6746005 45.8210889,23.4731928 50.7768462,23.4731928 C55.4572836,23.4731928 58.5202169,20.9544598 58.5202169,17.1063954 C58.5202169,12.6286477 54.768984,11.2993164 51.2242409,10.4597387 C47.8515728,9.65514339 45.5113541,9.06044253 45.5113541,6.15690303 C45.5113541,3.70813478 47.6450829,2.06396181 50.7424312,2.06396181 C53.4956297,2.06396181 55.6637735,3.49824036 56.6962229,5.35230775 C56.7650529,5.45725496 58.0728221,4.93251891 58.0728221,3.9180292 C58.0728221,2.44876825 55.3196237,0 50.7080162,0 C46.4405586,0 43.2399654,2.65866267 43.2399654,6.22686784 C43.2399654,10.7395979 46.7158784,11.8590348 50.0885466,12.6636301 C53.2891398,13.433243 56.2144132,14.2378383 56.2144132,17.2113426 C56.2144132,19.8350228 54.1839293,21.409231 50.7424312,21.409231 C47.438593,21.409231 45.2016193,19.6950932 43.9970949,17.596149 C43.928265,17.4912018 42.6204957,18.0159379 42.6204957,19.0304276 Z M70.0738176,22.1088791 C70.0738176,22.8435095 70.4179675,23.1933336 71.0718521,23.1933336 L71.3815869,23.1933336 C72.0698865,23.1933336 72.4140364,22.8435095 72.4140364,22.1088791 L72.4140364,2.58869787 L79.4002775,2.58869787 C80.0885771,2.58869787 80.4671419,2.23887383 80.4671419,1.60919057 L80.4671419,1.43427855 C80.4671419,0.769612879 80.0885771,0.419788843 79.4002775,0.419788843 L63.0875765,0.419788843 C62.3992769,0.419788843 62.0207121,0.769612879 62.0207121,1.43427855 L62.0207121,1.60919057 C62.0207121,2.23887383 62.3992769,2.58869787 63.0875765,2.58869787 L70.0738176,2.58869787 L70.0738176,22.1088791 Z M0.894789505,46.7714736 C0.894789505,53.6630071 5.43756699,58.4555964 11.9419984,58.4555964 C17.6893002,58.4555964 20.7522335,54.8174264 20.7522335,53.3481655 C20.7522335,52.1237814 19.2723893,51.8089397 19.2379744,51.9488693 C18.2055249,54.6774968 15.3490815,56.3916346 12.0452433,56.3916346 C6.98624113,56.3916346 3.30383817,52.3336758 3.30383817,46.7015088 C3.30383817,41.0343594 6.88299619,37.0463654 11.9764134,37.0463654 C14.6607819,37.0463654 17.5516403,38.4106791 18.9626545,40.8944298 C19.0314845,40.999377 20.3392537,40.6845354 20.3392537,39.4601513 C20.3392537,38.1308199 17.3795654,34.9824036 12.0452433,34.9824036 C5.47198197,34.9824036 0.894789505,39.8449577 0.894789505,46.7714736 Z M24.8377834,46.7714736 C24.8377834,39.8449577 29.4493908,34.9824036 35.9538222,34.9824036 C42.4926686,34.9824036 47.0010311,39.7749929 47.0010311,46.7015088 C47.0010311,53.6280247 42.4238387,58.4555964 35.8849923,58.4555964 C29.3461459,58.4555964 24.8377834,53.6979895 24.8377834,46.7714736 Z M27.2468321,46.7015088 C27.2468321,52.3686582 30.89482,56.3916346 35.9538222,56.3916346 C41.0128244,56.3916346 44.5919825,52.438623 44.5919825,46.7714736 C44.5919825,41.1393066 40.9439945,37.0463654 35.8849923,37.0463654 C30.8259901,37.0463654 27.2468321,41.0343594 27.2468321,46.7015088 Z M52.94499,57.0912827 C52.94499,57.8259131 53.2891398,58.1757372 53.9430244,58.1757372 L54.2527593,58.1757372 C54.9410589,58.1757372 55.2852087,57.8259131 55.2852087,57.0912827 L55.2852087,36.3467173 C55.2852087,35.6470693 54.9410589,35.2622628 54.2527593,35.2622628 L53.9430244,35.2622628 C53.2891398,35.2622628 52.94499,35.6470693 52.94499,36.3467173 L52.94499,57.0912827 Z M62.158372,57.0912827 C62.158372,57.8259131 62.4336919,58.1757372 63.0875765,58.1757372 L63.3973113,58.1757372 C64.085611,58.1757372 64.3609308,57.8259131 64.3609308,57.0912827 L64.3609308,38.4106791 L77.1977187,57.2661947 C77.6451135,57.8958779 77.8516033,58.1757372 78.7119779,58.1757372 L78.8840528,58.1757372 C79.6411824,58.1757372 80.0885771,57.5110715 80.0885771,56.5665466 L80.0885771,36.3467173 C80.0885771,35.6120869 79.8132573,35.2622628 79.1593726,35.2622628 L78.8496378,35.2622628 C78.1613382,35.2622628 77.8860183,35.6120869 77.8860183,36.3467173 L77.8860183,54.3276728 L65.80636,36.5216294 C65.2557203,35.7170341 64.8771555,35.2622628 64.016781,35.2622628 L63.4317263,35.2622628 C62.6057668,35.2622628 62.158372,35.9968933 62.158372,36.8714534 L62.158372,57.0912827 Z M8.05310554,92.0736863 C8.05310554,92.8083167 8.39725535,93.1581408 9.05113999,93.1581408 L9.36087482,93.1581408 C10.0491744,93.1581408 10.3933242,92.8083167 10.3933242,92.0736863 L10.3933242,72.5535051 L17.3795654,72.5535051 C18.067865,72.5535051 18.4464298,72.203681 18.4464298,71.5739978 L18.4464298,71.3990857 C18.4464298,70.7344201 18.067865,70.384596 17.3795654,70.384596 L1.06686441,70.384596 C0.37856479,70.384596 5.68434189e-14,70.7344201 5.68434189e-14,71.3990857 L5.68434189e-14,71.5739978 C5.68434189e-14,72.203681 0.37856479,72.5535051 1.06686441,72.5535051 L8.05310554,72.5535051 L8.05310554,92.0736863 Z M21.1897954,81.7538772 C21.1897954,74.8273613 25.8014029,69.9648072 32.3058343,69.9648072 C38.8446806,69.9648072 43.3530431,74.7573965 43.3530431,81.6839124 C43.3530431,88.6104283 38.7758507,93.438 32.2370043,93.438 C25.6981579,93.438 21.1897954,88.6803931 21.1897954,81.7538772 Z M23.5988441,81.6839124 C23.5988441,87.3510618 27.2468321,91.3740382 32.3058343,91.3740382 C37.3648365,91.3740382 40.9439945,87.4210266 40.9439945,81.7538772 C40.9439945,76.1217102 37.2960065,72.028769 32.2370043,72.028769 C27.1780021,72.028769 23.5988441,76.016763 23.5988441,81.6839124 Z M48.9528522,92.0736863 C48.9528522,92.8083167 49.228172,93.1581408 49.8820567,93.1581408 L50.1917915,93.1581408 C50.8800911,93.1581408 51.155411,92.8083167 51.155411,92.0736863 L51.155411,73.3930827 L63.9921989,92.2485983 C64.4395936,92.8782815 64.6460835,93.1581408 65.506458,93.1581408 L65.6785329,93.1581408 C66.4356625,93.1581408 66.8830573,92.4934751 66.8830573,91.5489502 L66.8830573,71.3291209 C66.8830573,70.5944905 66.6077374,70.2446664 65.9538528,70.2446664 L65.644118,70.2446664 C64.9558183,70.2446664 64.6804985,70.5944905 64.6804985,71.3291209 L64.6804985,89.3100764 L52.6008402,71.5040329 C52.0502005,70.6994377 51.6716357,70.2446664 50.8112612,70.2446664 L50.2262065,70.2446664 C49.4002469,70.2446664 48.9528522,70.9792969 48.9528522,71.853857 L48.9528522,92.0736863 Z M73.7562206,92.0736863 C73.7562206,92.8083167 74.1003704,93.1581408 74.7542551,93.1581408 L75.0639899,93.1581408 C75.7522895,93.1581408 76.0964393,92.8083167 76.0964393,92.0736863 L76.0964393,71.3291209 C76.0964393,70.6294729 75.7522895,70.2446664 75.0639899,70.2446664 L74.7542551,70.2446664 C74.1003704,70.2446664 73.7562206,70.6294729 73.7562206,71.3291209 L73.7562206,92.0736863 Z M82.0403982,81.7538772 C82.0403982,88.5054811 86.1013659,93.438 92.5369674,93.438 C96.1505404,93.438 98.9381538,91.9337566 100.349168,89.450006 L100.349168,90.8842845 C100.349168,92.7733343 100.865393,93.1581408 101.656937,93.1581408 C102.104332,93.1581408 102.414067,92.9832288 102.414067,92.9132639 L102.414067,83.2231382 C102.414067,82.2436308 101.691352,81.474018 100.693318,81.474018 L94.0856415,81.474018 C93.225267,81.474018 92.8122872,81.823842 92.8122872,82.4885077 L92.8122872,82.6284373 C92.8122872,83.2581206 93.225267,83.6079446 94.0856415,83.6079446 L100.349168,83.6079446 L100.349168,85.6019416 C99.8329433,89.0302171 96.873255,91.3740382 92.8467022,91.3740382 C87.5467951,91.3740382 84.4494468,87.281097 84.4494468,81.6839124 C84.4494468,75.9817806 87.9941899,72.028769 93.122022,72.028769 C95.8063905,72.028769 98.662834,73.3231179 100.073848,75.8068686 C100.142678,75.9118158 101.484862,75.7718862 101.484862,74.4425548 C101.484862,73.1132235 98.525174,69.9648072 93.190852,69.9648072 C86.6175906,69.9648072 82.0403982,74.8273613 82.0403982,81.7538772 Z M108.495686,92.0736863 C108.495686,92.8083167 108.839835,93.1581408 109.49372,93.1581408 L109.803455,93.1581408 C110.491755,93.1581408 110.835904,92.8083167 110.835904,92.0736863 L110.835904,82.7683669 L124.223332,82.7683669 L124.223332,92.0736863 C124.223332,92.8083167 124.567482,93.1581408 125.221366,93.1581408 L125.531101,93.1581408 C126.219401,93.1581408 126.563551,92.8083167 126.563551,92.0736863 L126.563551,71.3291209 C126.563551,70.6294729 126.219401,70.2446664 125.531101,70.2446664 L125.221366,70.2446664 C124.567482,70.2446664 124.223332,70.6294729 124.223332,71.3291209 L124.223332,80.5994579 L110.835904,80.5994579 L110.835904,71.3291209 C110.835904,70.6294729 110.491755,70.2446664 109.803455,70.2446664 L109.49372,70.2446664 C108.839835,70.2446664 108.495686,70.6294729 108.495686,71.3291209 L108.495686,92.0736863 Z M139.321676,92.0736863 C139.321676,92.8083167 139.665826,93.1581408 140.31971,93.1581408 L140.629445,93.1581408 C141.317745,93.1581408 141.661894,92.8083167 141.661894,92.0736863 L141.661894,72.5535051 L148.648136,72.5535051 C149.336435,72.5535051 149.715,72.203681 149.715,71.5739978 L149.715,71.3990857 C149.715,70.7344201 149.336435,70.384596 148.648136,70.384596 L132.335435,70.384596 C131.647135,70.384596 131.26857,70.7344201 131.26857,71.3990857 L131.26857,71.5739978 C131.26857,72.203681 131.647135,72.5535051 132.335435,72.5535051 L139.321676,72.5535051 L139.321676,92.0736863 Z" id="LAST-COIN-TONIGHT-Copy" fill="#2D2D2D"></path>
            <ellipse id="Oval-Copy" fill="#2D2D2D" cx="118.717884" cy="29.798584" rx="24.9678835" ry="25.298584"></ellipse>
            <g id="Group-Copy" transform="translate(103.875000, 22.125000)" fill="#FFFFFF">
                <path d="M0,13.1526498 C0,13.5518433 0.310218978,13.875 0.693430657,13.875 L6.93430657,13.875 C7.29927007,13.875 7.5,13.6658986 7.5,13.3237327 L7.5,13.2286866 C7.5,12.8675115 7.29927007,12.6774194 6.93430657,12.6774194 L1.24087591,12.6774194 L1.24087591,2.08928571 C1.24087591,1.69009217 1.05839416,1.5 0.693430657,1.5 L0.52919708,1.5 C0.182481752,1.5 0,1.69009217 0,2.08928571 L0,13.1526498 Z" id="Path"></path>
                <path d="M8.625,7.71516393 C8.625,11.3483607 10.8555026,13.875 14.0491768,13.875 C16.8711005,13.875 18.375,11.9569672 18.375,11.182377 C18.375,10.5368852 17.6483969,10.3709016 17.6314991,10.4446721 C17.1245667,11.8831967 15.7220537,12.7868852 14.09987,12.7868852 C11.6159012,12.7868852 9.80784229,10.647541 9.80784229,7.67827869 C9.80784229,4.69057377 11.565208,2.58811475 14.0660745,2.58811475 C15.3840988,2.58811475 16.8035095,3.30737705 17.4963172,4.61680328 C17.5301127,4.67213115 18.172227,4.50614754 18.172227,3.86065574 C18.172227,3.15983607 16.7190208,1.5 14.09987,1.5 C10.8724003,1.5 8.625,4.06352459 8.625,7.71516393 Z" id="Path"></path>
                <path d="M24.1315299,13.2857143 C24.1315299,13.6849078 24.3134328,13.875 24.6590485,13.875 L24.8227612,13.875 C25.1865672,13.875 25.3684701,13.6849078 25.3684701,13.2857143 L25.3684701,2.67857143 L29.0611007,2.67857143 C29.4249067,2.67857143 29.625,2.48847926 29.625,2.14631336 L29.625,2.05126728 C29.625,1.69009217 29.4249067,1.5 29.0611007,1.5 L20.4388993,1.5 C20.0750933,1.5 19.875,1.69009217 19.875,2.05126728 L19.875,2.14631336 C19.875,2.48847926 20.0750933,2.67857143 20.4388993,2.67857143 L24.1315299,2.67857143 L24.1315299,13.2857143 Z" id="Path"></path>
                <path d="M13.2832022,14.6473282 C13.2832022,15.1402672 13.4238913,15.375 13.6912005,15.375 L13.8178207,15.375 C14.0991989,15.375 14.239888,15.1402672 14.239888,14.6473282 L14.239888,0.727671756 C14.239888,0.258206107 14.0991989,0 13.8178207,0 L13.6912005,0 C13.4238913,0 13.2832022,0.258206107 13.2832022,0.727671756 L13.2832022,14.6473282 Z" id="I"></path>
            </g>
        </g>
    </g>
</svg>